<svg data-v-423bf9ae="" xmlns="http://www.w3.org/2000/svg" viewBox="0 0 991 90" class="iconLeft"><!----><!----><!----><g data-v-423bf9ae="" id="f8f5007d-2bc8-4352-943b-6e12cfffa3f3" fill="black" transform="matrix(4.316546584895844,0,0,4.316546584895844,88.58686213534952,1.575539381704786)"><path d="M1.58 13.78L2.41 13.78L2.41 9.91L4.20 9.91C6.24 9.91 7.52 9.03 7.52 7.15C7.52 5.21 6.24 4.54 4.20 4.54L1.58 4.54ZM2.41 9.21L2.41 5.21L4.03 5.21C5.81 5.21 6.68 5.67 6.68 7.15C6.68 8.61 5.82 9.21 4.03 9.21ZM12.60 13.96C14.38 13.96 15.89 12.59 15.89 10.22C15.89 7.83 14.38 6.47 12.60 6.47C10.82 6.47 9.31 7.83 9.31 10.22C9.31 12.59 10.82 13.96 12.60 13.96ZM12.60 13.27C11.17 13.27 10.15 12.04 10.15 10.22C10.15 8.40 11.17 7.15 12.60 7.15C14.03 7.15 15.05 8.40 15.05 10.22C15.05 12.04 14.03 13.27 12.60 13.27ZM22.54 13.96C23.24 13.96 23.70 13.75 24.28 13.51L24.05 12.88C23.52 13.15 23.11 13.27 22.69 13.27C21.78 13.27 21.28 12.75 21.28 11.63L21.28 3.57L18.03 3.57L18.03 4.26L20.47 4.26L20.47 11.56C20.47 13.19 21.21 13.96 22.54 13.96ZM30.94 13.96C31.64 13.96 32.10 13.75 32.68 13.51L32.45 12.88C31.92 13.15 31.51 13.27 31.09 13.27C30.18 13.27 29.68 12.75 29.68 11.63L29.68 3.57L26.43 3.57L26.43 4.26L28.87 4.26L28.87 11.56C28.87 13.19 29.61 13.96 30.94 13.96ZM38.19 4.76C38.64 4.76 39.02 4.41 39.02 3.95C39.02 3.44 38.64 3.11 38.19 3.11C37.74 3.11 37.37 3.44 37.37 3.95C37.37 4.41 37.74 4.76 38.19 4.76ZM35.21 13.78L41.51 13.78L41.51 13.09L38.75 13.09L38.75 6.64L35.21 6.64L35.21 7.32L37.95 7.32L37.95 13.09L35.21 13.09ZM43.41 13.78L44.23 13.78L44.23 8.71C45.14 7.67 45.75 7.18 46.65 7.18C47.91 7.18 48.43 7.92 48.43 9.44L48.43 13.78L49.24 13.78L49.24 9.32C49.24 7.42 48.48 6.47 46.84 6.47C45.78 6.47 44.98 7.10 44.23 7.98L44.17 7.98L44.09 6.64L43.41 6.64ZM54.38 17.01C56.25 17.01 57.39 15.90 57.39 13.78L57.39 6.64L56.73 6.64L56.64 7.45L56.62 7.45C55.99 6.86 55.27 6.47 54.46 6.47C52.78 6.47 51.31 7.87 51.31 10.12C51.31 12.45 52.50 13.75 54.25 13.75C55.16 13.75 56.04 13.20 56.60 12.57L56.59 13.69C56.57 15.78 55.78 16.34 54.38 16.34C53.65 16.34 52.85 16.13 52.14 15.09L51.63 15.53C52.54 16.72 53.45 17.01 54.38 17.01ZM54.40 13.06C52.99 13.06 52.15 11.89 52.15 10.11C52.15 8.43 53.23 7.17 54.54 7.17C55.22 7.17 55.87 7.45 56.59 8.16L56.59 11.83C55.87 12.61 55.13 13.06 54.40 13.06ZM71.51 13.94C73.43 13.94 74.65 12.84 74.65 11.40C74.65 10.00 73.68 9.45 72.59 8.95L71.23 8.36C70.49 8.02 69.54 7.64 69.54 6.65C69.54 5.70 70.35 5.11 71.57 5.11C72.53 5.11 73.28 5.47 73.86 6.02L74.33 5.47C73.71 4.84 72.73 4.37 71.57 4.37C69.90 4.37 68.68 5.33 68.68 6.71C68.68 8.05 69.80 8.68 70.69 9.04L72.06 9.63C73.02 10.07 73.81 10.37 73.81 11.47C73.81 12.50 72.94 13.20 71.51 13.20C70.42 13.20 69.43 12.71 68.74 11.97L68.22 12.56C68.99 13.38 70.13 13.94 71.51 13.94ZM80.19 4.76C80.64 4.76 81.02 4.41 81.02 3.95C81.02 3.44 80.64 3.11 80.19 3.11C79.74 3.11 79.37 3.44 79.37 3.95C79.37 4.41 79.74 4.76 80.19 4.76ZM77.21 13.78L83.51 13.78L83.51 13.09L80.75 13.09L80.75 6.64L77.21 6.64L77.21 7.32L79.95 7.32L79.95 13.09L77.21 13.09ZM89.53 13.96C90.22 13.96 91.01 13.76 91.63 13.51L91.42 12.91C90.92 13.13 90.37 13.26 89.68 13.26C88.26 13.26 87.86 12.47 87.86 11.12L87.86 7.32L91.36 7.32L91.36 6.64L87.86 6.64L87.86 3.89L87.08 4.54L87.08 6.64L85.08 6.64L85.08 7.32L87.05 7.32L87.05 11.09C87.05 12.80 87.64 13.96 89.53 13.96ZM97.02 13.96C98.18 13.96 98.97 13.54 99.60 13.12L99.29 12.53C98.64 12.98 97.97 13.26 97.10 13.26C95.45 13.26 94.30 12.07 94.29 10.36L99.85 10.36C99.88 10.18 99.88 9.98 99.88 9.79C99.88 7.74 98.71 6.47 96.84 6.47C95.10 6.47 93.44 7.91 93.44 10.22C93.44 12.56 95.06 13.96 97.02 13.96ZM94.28 9.73C94.46 8.12 95.61 7.13 96.84 7.13C98.22 7.13 99.11 8.04 99.11 9.73ZM112.74 13.78L113.53 13.78L113.53 7.32L116.56 7.32L116.56 6.64L113.53 6.64L113.53 6.23C113.53 4.94 114.06 4.09 115.40 4.09C116.02 4.09 116.42 4.14 117.04 4.47L117.25 3.84C116.59 3.51 115.98 3.40 115.35 3.40C113.58 3.40 112.74 4.48 112.74 6.27L112.74 6.64L110.75 6.72L110.75 7.32L112.74 7.32ZM121.80 13.96C123.58 13.96 125.09 12.59 125.09 10.22C125.09 7.83 123.58 6.47 121.80 6.47C120.02 6.47 118.51 7.83 118.51 10.22C118.51 12.59 120.02 13.96 121.80 13.96ZM121.80 13.27C120.37 13.27 119.35 12.04 119.35 10.22C119.35 8.40 120.37 7.15 121.80 7.15C123.23 7.15 124.25 8.40 124.25 10.22C124.25 12.04 123.23 13.27 121.80 13.27ZM128.20 13.78L129.01 13.78L129.01 9.39C129.91 7.81 130.90 7.22 131.98 7.22C132.52 7.22 132.76 7.28 133.25 7.49L133.46 6.76C133.04 6.52 132.58 6.47 132.12 6.47C130.80 6.47 129.72 7.25 129.00 8.40L128.95 8.40L128.88 6.64L128.20 6.64ZM144.35 13.78L145.18 13.78L145.18 9.66L147.03 9.66L149.42 13.78L150.37 13.78L147.94 9.62C149.28 9.34 150.16 8.50 150.16 7.01C150.16 5.21 148.90 4.54 147.07 4.54L144.35 4.54ZM145.18 8.96L145.18 5.21L146.90 5.21C148.46 5.21 149.32 5.70 149.32 7.01C149.32 8.33 148.46 8.96 146.90 8.96ZM155.41 13.94C157.04 13.94 158.41 13.05 158.41 10.32L158.41 4.54L157.60 4.54L157.60 10.26C157.60 12.49 156.60 13.20 155.41 13.20C154.21 13.20 153.23 12.49 153.23 10.26L153.23 4.54L152.39 4.54L152.39 10.32C152.39 13.05 153.76 13.94 155.41 13.94ZM161.32 13.78L167.01 13.78L167.01 13.06L162.16 13.06L162.16 9.25L166.12 9.25L166.12 8.53L162.16 8.53L162.16 5.24L166.87 5.24L166.87 4.54L161.32 4.54ZM171.78 13.78L172.62 13.78L172.62 5.24L175.76 5.24L175.76 4.54L168.64 4.54L168.64 5.24L171.78 5.24ZM180.99 4.76C181.44 4.76 181.82 4.41 181.82 3.95C181.82 3.44 181.44 3.11 180.99 3.11C180.54 3.11 180.17 3.44 180.17 3.95C180.17 4.41 180.54 4.76 180.99 4.76ZM178.01 13.78L184.31 13.78L184.31 13.09L181.55 13.09L181.55 6.64L178.01 6.64L178.01 7.32L180.75 7.32L180.75 13.09L178.01 13.09ZM188.36 13.96C189.35 13.96 190.36 13.37 191.13 12.73L191.17 12.73L191.24 13.78L191.91 13.78L191.91 9.27C191.91 7.67 191.11 6.47 189.29 6.47C188.10 6.47 187.12 7.08 186.63 7.50L186.97 8.11C187.46 7.67 188.22 7.17 189.17 7.17C190.62 7.17 191.09 8.19 191.10 9.28C187.50 9.62 186.05 10.37 186.05 12.00C186.05 13.30 187.14 13.96 188.36 13.96ZM188.54 13.29C187.68 13.29 186.84 12.89 186.84 11.94C186.84 10.85 187.87 10.18 191.10 9.87L191.10 12.05C190.22 12.87 189.36 13.29 188.54 13.29ZM194.61 13.78L195.43 13.78L195.43 8.71C196.34 7.67 196.95 7.18 197.85 7.18C199.11 7.18 199.63 7.92 199.63 9.44L199.63 13.78L200.44 13.78L200.44 9.32C200.44 7.42 199.68 6.47 198.04 6.47C196.98 6.47 196.18 7.10 195.43 7.98L195.37 7.98L195.29 6.64L194.61 6.64ZM206.01 13.96C207.86 13.96 208.89 13.01 208.89 11.89C208.89 10.88 208.12 10.30 206.12 9.77C204.79 9.42 203.94 9.02 203.94 8.37C203.94 7.73 204.37 7.13 205.80 7.13C206.68 7.13 207.42 7.45 208.01 7.91L208.45 7.34C207.79 6.86 206.75 6.47 205.81 6.47C203.98 6.47 203.08 7.35 203.08 8.41C203.08 9.35 204.25 10.02 205.72 10.40C207.59 10.88 208.05 11.34 208.05 11.94C208.05 12.68 207.38 13.29 206.05 13.29C204.72 13.29 203.87 12.89 203.13 12.28L202.71 12.84C203.52 13.44 204.65 13.96 206.01 13.96Z"></path></g><!----><g data-v-423bf9ae="" id="cbc33f52-468f-49e8-9e31-ad59bd5eb517" transform="matrix(1.5504373373649722,0,0,1.5504373373649722,-38.839856322156976,-31.546176122227834)" stroke="none" fill="black"><path d="M55.596 29.803c-.057-2.75-.135-6.52-1.859-7.84-.561-.428-1.172-.519-1.802-.582-.357-.034-.75-.093-1.162-.155-1.592-.235-3.396-.502-4.759.216-1.611.851-1.519 2.498-1.437 3.935.021.362.042.746.042 1.151 0 .685.138 2.324.15 2.418 0 .914.148 2.655.151 2.67l.449 14.254c0 3.233-.055 6.537-.107 9.732-.069 4.191-.133 8.523-.086 12.813.021 1.942.042 3.951-.021 5.899-.052 1.661.177 2.841.706 3.61.813 1.183 2.109 1.176 3.852 1.036 2.885-.23 5.61-.448 5.811-6.737.037-1.166.042-2.34.038-3.512-.003-.714-.011-1.428-.018-2.142-.01-.932-.02-1.863-.02-2.79V39.712c0-1.089.04-2.174.08-3.258.04-1.092.081-2.208.081-3.334 0-.621-.013-1.246-.044-1.872a40.022 40.022 0 0 1-.045-1.445zM36.738 45.384c-.057-1.877-.136-4.447-1.859-5.349-.56-.292-1.172-.354-1.802-.397-.357-.023-.75-.063-1.162-.105-1.591-.16-3.396-.343-4.759.147-1.611.581-1.518 1.699-1.437 2.686.021.247.042.509.042.785 0 .468.138 1.586.15 1.65 0 .624.147 1.812.15 1.822l.45 9.728c0 2.206-.055 4.461-.107 6.642-.069 2.858-.133 5.809-.087 8.743.021 1.325.043 2.695-.021 4.026-.052 1.123.177 1.938.706 2.464.812.807 2.109.802 3.852.707 2.885-.157 5.61-.306 5.81-4.599.038-.794.043-1.595.039-2.396-.003-.488-.011-.978-.019-1.466-.01-.635-.02-1.269-.02-1.9V52.149c0-.742.04-1.481.08-2.221.04-.747.081-1.51.081-2.278 0-.425-.013-.852-.044-1.278a24.859 24.859 0 0 1-.043-.988zM74.235 61.932c.041-.442.083-.895.083-1.355 0-.26-.013-.521-.047-.786-.021-.162-.03-.349-.041-.55-.054-1.036-.145-2.771-1.945-3.318-.532-.162-1.122-.196-1.73-.221-.44-.017-.88-.044-1.32-.071-.839-.051-1.707-.104-2.571-.087l-.396.005c-1.028.007-1.917.013-2.323 1.364-.275.917-.179 2.148-.086 3.339.044.566.084 1.101.079 1.535-.012.72.011 1.476.033 2.214.017.567.034 1.124.034 1.642 0 1.278-.055 2.588-.107 3.854-.069 1.67-.132 3.396-.087 5.112.022.764.043 1.551-.02 2.309-.046.573.095 1.043.424 1.39.707.743 2.091.757 4.121.692 3.008-.096 5.606-.178 5.821-2.859.038-.472.044-.946.04-1.426a48.898 48.898 0 0 0-.019-.858c-.01-.367-.02-.733-.02-1.098v-9.562c-.001-.423.038-.844.077-1.265z"></path></g><!----></svg>